<svg aria-hidden="true" style="position:absolute;width:0;height:0" xmlns="http://www.w3.org/2000/svg" overflow="hidden"><defs><symbol id="audio-book" viewBox="0 0 26 32"><path d="M2.048 21.84h8.219a2.516 2.516 0 002.262 1.422h.538c.991 0 1.847-.574 2.256-1.407l.007-.015h8.223c.847 0 1.536-.689 1.536-1.536V5.584c0-.847-.689-1.536-1.536-1.536h-.829v-.686c0-.564-.46-1.024-1.024-1.024H3.898c-.564 0-1.024.46-1.024 1.024v.686H2.05c-.847 0-1.536.689-1.536 1.536v14.72c0 .847.689 1.536 1.536 1.536zm19.65-3.159h-8.386V6.784a3.959 3.959 0 013.441 3.918v.462l-.121-.027a.51.51 0 00-.609.387l-.001.003-.815 3.708a.51.51 0 00.387.608l.003.001 1.761.388a1.307 1.307 0 001.558-1.003l.472-2.145a1.314 1.314 0 00-.989-1.56l-.009-.002-.613-.135v-.688a4.987 4.987 0 00-4.465-4.953V3.36h8.387l-.001 15.319zm-4.787-6.434l1.257.277a.284.284 0 01.219.341l-.471 2.145a.303.303 0 01-.343.222h.002l-1.259-.277.595-2.708zM3.896 3.362h8.392v2.386a4.986 4.986 0 00-4.47 4.953v.687l-.614.136a1.308 1.308 0 00-.818.568l-.003.005a1.286 1.286 0 00-.173.996l-.002-.009.471 2.142A1.318 1.318 0 008.25 16.23l-.009.002 1.754-.387a.512.512 0 00.389-.613l.001.003-.815-3.709a.513.513 0 00-.614-.389l.003-.001-.117.026v-.461a3.96 3.96 0 013.446-3.919v11.899H3.896V3.362zm4.783 8.885l.596 2.708-1.252.276a.29.29 0 01-.343-.219v-.002l-.471-2.148a.276.276 0 01.037-.215l-.001.001a.29.29 0 01.178-.125h.002l1.254-.276zM1.536 5.584c0-.282.229-.512.512-.512h.824v13.609c0 .565.46 1.024 1.024 1.024h17.802c.564 0 1.024-.459 1.024-1.024V5.073h.829c.283 0 .512.23.512.512v14.72a.512.512 0 01-.512.512H14.98a.514.514 0 00-.489.358l-.001.004a1.496 1.496 0 01-1.428 1.06h-.528a1.497 1.497 0 01-1.431-1.055l-.003-.011a.514.514 0 00-.488-.356H2.046a.512.512 0 01-.512-.512V5.585z"/></symbol><symbol id="check" viewBox="0 0 26 32"><path d="M20.463 5.365c-.762.341-1.492.757-2.189 1.221-1.401.922-2.683 2.02-3.885 3.191a43.314 43.314 0 00-3.377 3.736l-1.449 1.781-4.925-7.38-1.859 5.153 6.66 7.943c.647-1.309 1.269-2.602 1.88-3.725.152-.286.311-.555.463-.827 0 0 .781-1.374.987-1.72a41.462 41.462 0 012.689-4.013c.979-1.279 2.044-2.499 3.251-3.572.6-.54 1.24-1.039 1.925-1.474.684-.435 1.41-.817 2.187-1.091-.808.159-1.597.435-2.357.777z"/></symbol><symbol id="man" viewBox="0 0 26 32"><path d="M2.211 25.028h21.198c.105-2.407-.068-6.401-1.554-8.302l-.054-.068-3.248-1.624c.07-.237.105-.454.119-.613a1.12 1.12 0 00-.082-.542l.003.007c-.536-1.277-1.67-1.949-2.293-2.235.19-.381.313-.791.372-1.209.36-.102.637-.385.729-.742l.002-.007.379-1.534a1.031 1.031 0 00-.122-.795l.003.004a1.024 1.024 0 00-.231-.262l-.002-.002c1.069-2.417-.721-4.697-.819-4.817C14.672.2 12.223.59 12.094.613 8.56 1.35 7.196 4.047 7.966 7.211a1.032 1.032 0 00-.238.953l-.002-.007.381 1.535c.092.369.374.646.725.747.113.78.438 1.468.916 2.023l-.004-.005v1.215c-5.072 2.587-1.858.936-5.923 2.984-.008.038-1.907 2.048-1.625 8.006l.017.364zm20.462-.765h-3.488v-1.459l2.307-5.26c1.156 1.91 1.199 5.558 1.181 6.719zm-4.762-9.907c-.134 1.54-.983 1.074-1.506 2.261-.412-.451-.536-.992-.425-1.57.2-1.063-.452-1.379-.29-2.495l.024-.026v-.004c.014-.015.143-.167.18-.216 1.381.599 2.045 1.713 2.018 2.049zm-7.405-1.211c.627.44 1.406.704 2.247.704.783 0 1.528-.227 2.165-.645.089.878.433 1.053.311 1.7-.023.12-.036.238-.043.354l-2.376 2.667-3.038-3.41.734-.381v-.988zm-.955-3.263V5.806c.37-.681.874-1.175 1.5-1.471 1.678.946 3.609 2.356 4.904 3.776-.001 1.808.005 1.813-.007 1.962l-.001.01a3.2 3.2 0 01-3.196 3.003 3.206 3.206 0 01-3.202-3.187v-.017.001zm-.473 5.002l3.733 4.19 2.506-2.812c.057.164.138.319.229.469l-2.735 3.406-4.079-5.08.347-.173zm7.642-5.617v-1.18l.285-.325c.015.598.08-.108-.285 1.505zm-4.485-7.9c.152.009 2.188-.309 3.798 1.422.063.079 1.374 1.76.847 3.599-.18-.818-.494-1.867-.991-2.367l-.543.538c.49.494.812 1.999.935 2.78-2.248-2.342-5.148-3.825-5.187-3.85-.146.09-1.373.322-2.264 2.047l-.043.083v1.267l-.112.001c-.567-2.722.518-4.885 3.56-5.519zm-3.64 6.305l.193.778v.818l-.32-1.292c-.047-.193.096-.266.128-.304zm-.562 7.734l4.778 5.951 3.232-4.026c.352.313.521.358 1.267.739l-.251-.849c-.064-.215.189-.562.341-.721.343-.188.624-.448.831-.762l.005-.009 2.638 1.319-2.455 5.595v1.619H7.2v-1.619l-2.455-5.595 3.287-1.643zm-3.904 2.14l2.308 5.259v1.459H2.949c-.018-1.16.026-4.807 1.181-6.717z"/></symbol><symbol id="fire" viewBox="0 0 26 32"><path d="M20.635 13.26c-.218-.493-.52-.979-.96-1.54-1.111-1.408-1.449-4.548-1.453-4.578a.378.378 0 00-.659-.211c-1.325 1.495-.768 3.802-.467 4.725.083.252.173.55.237.851.489 2.436-.456 3.539-.678 3.761-.215.06-.361.03-.497-.117-.467-.516-.621-2.206-.403-4.408a4.548 4.548 0 00-.03-1.227c-.46-2.707-2.149-4.443-2.579-5.052C11.964 3.702 11.843.769 11.84.743a.37.37 0 00-.205-.323l-.002-.001a.372.372 0 00-.382.027l.001-.001C9.279 1.797 9.449 5.053 9.724 6.871c.064.422.188.851.403 1.393.764 1.939-.151 4.442-.158 4.465s-.015.041-.019.064c-.117.617-.312.986-.531.986a.248.248 0 01-.073-.012l.002.001c-.267-.056-.407-.343-.41-.591-.015-3.211-3.211-4.292-3.245-4.303s-.074-.018-.115-.018a.371.371 0 00-.283.131v.001a.37.37 0 00-.052.416l-.001-.002c.038.079.158.425.075 1.649a14.203 14.203 0 01-.618 3.33l.027-.1c-.76 2.5-.64 4.868-.632 4.981.585 6.411 9.729 7.535 15.157 3.923.595-.395 1.08-.847 1.438-1.344 2.003-2.786.824-6.569-.053-8.58zm-13.91 6.126l.001.021c0 .2-.156.363-.353.374h-.024a.375.375 0 01-.376-.354c-.034-.55-.026-1.126.015-1.751a.381.381 0 01.403-.35.379.379 0 01.35.403 12.302 12.302 0 00-.015 1.656zm.184-3.336a.374.374 0 01-.373.331c-.015 0-.03 0-.049-.004a.38.38 0 01-.328-.418l.181-1.453a.378.378 0 01.75.094l-.181 1.449zM18.088 5.527a.377.377 0 01-.314-.431v.002c.024-.153.16-.936.529-1.33a.377.377 0 11.549.515c-.156.167-.289.644-.334.93a.377.377 0 01-.432.313h.002zM4.364 7.402c-.072-.28-.251-.742-.423-.892a.377.377 0 11.496-.566c.406.355.617 1.122.656 1.271a.377.377 0 01-.729.191l-.001-.003z"/></symbol><symbol id="people" viewBox="0 0 26 32"><path d="M1.918 10.148v2.182c0 .117.054.227.146.3a8.503 8.503 0 005.268 1.82c.571 0 1.142-.06 1.7-.172a9.117 9.117 0 003.753.795h.015-.001a9.227 9.227 0 003.768-.795c2.382.481 4.919-.036 6.968-1.648a.383.383 0 00.146-.301v-2.182a.924.924 0 00-.443-.791l-2.98-1.677c.652-.827 1.138-2.005 1.222-3.015.247-1.739-1.17-3.58-3.21-3.58-.858 0-1.674.353-2.272.945-.021.021-.044.038-.064.059-.019.019-.034.042-.051.062l-.034.041c-.583-1.063-1.703-1.72-3.024-1.72-.128 0-.254.009-.379.022-.008-.001-.014-.005-.022-.005a1.495 1.495 0 00-.311.044l.01-.002c-.012.003-.021.011-.032.016a3.467 3.467 0 00-2.313 1.645l-.009.016a3.214 3.214 0 00-2.442-1.123h-.008c-3.012 0-4.348 3.553-1.971 6.612l-3.007 1.67a.92.92 0 00-.426.775v.006zm14.643 3.29c-.065.032-.129.065-.194.095l-.002.001a8.356 8.356 0 01-3.541.775h-.026.001-.019a8.464 8.464 0 01-5.144-1.732l.021.015V10.38c0-.075.037-.142.079-.17l3.5-1.945c.436.369.992.641 1.568.641.555 0 1.155-.275 1.581-.65l3.457 1.941a.213.213 0 01.101.181v2.213a8.478 8.478 0 01-1.332.824l-.05.022zm6.286-3.426a.156.156 0 01.071.131v1.999a7.688 7.688 0 01-5.191 1.525c.322-.204.594-.397.856-.602l-.022.017a.383.383 0 00.146-.301v-2.4a.985.985 0 00-.47-.837L16.4 8.512l.447-.247c.541.442 1.007.573 1.424.573.51 0 1.048-.251 1.447-.585l3.129 1.76zm-4.576-8.163A2.48 2.48 0 0120.599 3.5a2.848 2.848 0 01-1.723-.88.38.38 0 00-.606.062l-.001.002a2.837 2.837 0 01-1.963 1.356v-.003l.001-.064a3.63 3.63 0 00-.028-.457l.002.018-.006-.051a4.155 4.155 0 00-.094-.469 2.51 2.51 0 012.09-1.166zM16.222 4.82a3.584 3.584 0 002.432-1.35l.006-.008a3.605 3.605 0 002.082.814c-.006 1.381-1.134 3.797-2.471 3.797-1.03 0-1.91-1.474-2.239-2.495a6.21 6.21 0 00.189-.758zm.077 2.874l-.683.378-.689-.387c.254-.317.483-.674.675-1.054l.016-.035c.199.419.426.779.69 1.109l-.009-.011zm-1.03-2.241c-.369 1.099-1.314 2.69-2.465 2.69-1.343 0-2.486-2.207-2.704-3.618.058-.015 1.872.097 3.121-1.542.633.53 1.488.881 2.32.915.01.498-.111 1.084-.271 1.555zm-2.443-4.218c2.142 0 2.55 1.844 2.583 1.882a3.183 3.183 0 01-1.975-.983.384.384 0 00-.607.065l-.001.002a3.138 3.138 0 01-2.739 1.558h-.02.001c.105-1.404 1.23-2.523 2.759-2.523zM9.984 6.588c.21.422.444.785.712 1.12l-.009-.012-.674.375-.699-.393a5.94 5.94 0 00.655-1.055l.016-.036zM7.322 1.849c.867 0 1.661.439 2.103 1.167-.022.077-.082.384-.09.422a2.844 2.844 0 01-1.402-.817l-.001-.002a.384.384 0 00-.607.065l-.001.002a2.862 2.862 0 01-2.447 1.398h-.001A2.467 2.467 0 017.321 1.85zM4.91 4.846A3.624 3.624 0 007.711 3.47l.006-.008c.439.361.974.621 1.561.737l.023.004c.023.443.138.981.27 1.378-.211.647-.616 1.418-1.118 1.931-.003.003-.008.005-.01.008-.314.331-.761.554-1.113.554-1.228 0-2.189-1.933-2.419-3.227zm-2.228 5.302c0-.058.026-.107.052-.125l3.171-1.76c.191.159.234.177.272.204.373.248.715.372 1.182.372.497 0 .95-.211 1.348-.535.023-.018.047-.034.068-.052l.452.254-1.885 1.048a.98.98 0 00-.45.824v2.402c0 .117.053.228.146.3.24.189.512.382.793.562l.041.025a7.725 7.725 0 01-5.192-1.526v-1.993z"/><path d="M24.468 16.484a1.595 1.595 0 00-1.556-.081l.009-.004-4.715 2.278a1.627 1.627 0 00-1.624-1.596l-2.704.001c-1.333-1.159-3.037-1.868-4.586-1.906a181.315 181.315 0 00-3.489-.049h-.05v-.772H.381v8.874h5.372v-1.063c1.473.845 5.347 2.963 7.185 2.963.042 0 .083-.001.122-.004 3.232-.181 10.857-5.546 11.36-5.903.479-.282.796-.796.797-1.383a1.59 1.59 0 00-.75-1.355zM4.99 22.465H1.146v-7.346H4.99v7.346zm19.038-3.898a.233.233 0 00-.035.022l.001-.001c-.078.056-7.921 5.603-10.976 5.775a2.6 2.6 0 01-.093.002c-1.612 0-5.543-2.121-7.171-3.083v-5.391c.637.003 2.001.013 3.52.049 1.416.034 2.987.71 4.204 1.807l.109.099 2.996-.001a.862.862 0 010 1.724H11.08v.764h5.503a1.62 1.62 0 001.29-.647l5.381-2.6a.812.812 0 01.812.046l-.003-.002a.822.822 0 01.391.699v.01c0 .311-.17.582-.422.726l-.004.002zM12.418 9.84h.764v.709h-.764zm0 1.413h.764v.709h-.764zm0 1.413h.764v.709h-.764z"/></symbol><symbol id="dolars" viewBox="0 0 22 32"><path d="M.433 10.994c0 .285-.433.285-.433 0C0 4.924 4.923 0 10.994 0c6.073 0 10.994 4.923 10.994 10.994 0 .285-.431.285-.431 0 0-4.103-6.743-4.106-6.743 0 0 .285-.444.285-.444 0 0-4.093-6.753-4.093-6.753 0 0 .285-.444.285-.444 0 0-4.085-6.74-4.114-6.74 0zM7.212 9.4c.117-2.362.488-4.479 1.028-6.096.431-1.285.976-2.26 1.594-2.808A10.568 10.568 0 00.608 9.073c1.596-2.302 5.281-2.118 6.605.327zm7.124-.106c-.119-2.271-.48-4.303-.999-5.852-1.339-4.01-3.348-4.01-4.687 0-.519 1.549-.877 3.582-.999 5.852 1.44-2.447 5.245-2.447 6.685 0zm7.044-.221A10.563 10.563 0 0012.154.496c.62.548 1.163 1.523 1.594 2.808.54 1.617.911 3.735 1.028 6.096 1.331-2.458 5.027-2.603 6.605-.327zm-11.829 6.95v-2.232c-.402.267-.719.68-.719 1.183 0 .491.322.815.719 1.049zm.433.693c-.771-.353-1.583-.766-1.583-1.741 0-1.007.766-1.51 1.583-1.887v3.628zm2.453 2.676v2.258c.407-.27.727-.685.727-1.189 0-.496-.327-.831-.727-1.069zm-.431-.695c.773.358 1.591.784 1.591 1.765 0 1.01-.771 1.513-1.591 1.887v-3.652z"/><path d="M12.437 11.251c1.775.41 3.6 1.739 3.6 3.724 0 1.7-2.873 1.638-2.873 0 0-.506-.319-.921-.727-1.189v3.177c1.643.537 3.605 1.5 3.605 3.498 0 1.988-1.825 3.314-3.605 3.722-.008 1.892-2.881 1.889-2.886-.003-1.012-.234-1.892-.706-2.528-1.331-.667-.659-1.061-1.487-1.061-2.388 0-1.674 2.87-1.674 2.87 0 0 .501.317.914.719 1.181v-3.174c-1.63-.527-3.602-1.518-3.602-3.498 0-1.988 1.824-3.314 3.602-3.722.008-1.892 2.881-1.889 2.886.003zm-2.453.005v.345c-1.69.335-3.605 1.417-3.605 3.369 0 1.876 2.102 2.717 3.605 3.182v4.194c-.812-.371-1.583-.872-1.583-1.884 0-1.106-2.009-1.106-2.009 0 0 .781.348 1.503.934 2.079.745.737 1.648 1.087 2.658 1.287v.348c0 1.331 2.022 1.331 2.022 0v-.345c1.695-.337 3.602-1.42 3.602-3.369 0-1.895-2.097-2.709-3.602-3.184v-4.191c.815.371 1.591.872 1.591 1.889 0 1.077 2.006 1.121 2.006 0 0-1.949-1.905-3.034-3.597-3.371v-.348c0-1.331-2.022-1.331-2.022 0z"/></symbol><symbol id="mob-learn" viewBox="0 0 26 32"><path d="M23.211.668H11.366a1.399 1.399 0 00-1.398 1.398v4.903l-8.8 3.693a.287.287 0 00-.038.509l.001.001 1.123.672v7.157A1.295 1.295 0 001.25 20.26v.69c0 .158.128.287.287.287h2.01a.287.287 0 00.287-.287v-.69a1.293 1.293 0 00-.996-1.256l-.009-.002v-6.815l.887.531c-.027.204-.003-.357-.013 3.332 0 1.213 3.106 1.862 6.266 1.9v5.586a1.4 1.4 0 001.398 1.396h11.845a1.399 1.399 0 001.397-1.397c0 .038-.002-1.183 0-21.469 0-.76-.629-1.398-1.396-1.398zM3.259 20.261v.404H1.822v-.404a.72.72 0 01.716-.72.72.72 0 01.72.72zm19.952 4.096H11.366a.828.828 0 01-.684-.362.815.815 0 01-.141-.459v-1.937h13.491v1.937a.83.83 0 01-.821.822zm.822-3.331H10.541v-3.074c1.543-.018 6.27-.357 6.27-1.901-.002-2.317.004-3.257-.008-3.337l2.574-1.541a.287.287 0 00-.035-.51l-.002-.001-8.8-3.693V4.576h13.492v16.45zm-13.778-6.878c-1.589 0-4.65.206-5.98 1.074.008-2.656-.092-2.483.235-2.708.826-.608 3.188-1.033 5.745-1.033 1.115 0 5.984.306 5.984 1.337v2.403c-1.342-.876-4.387-1.074-5.984-1.074zm.287-12.082c0-.454.369-.824.824-.824h11.845c.455 0 .822.374.822.824v1.936H10.542V2.066zm-.287 5.405l8.343 3.501-2.067 1.237c-1.099-1.09-4.734-1.301-6.275-1.301-1.543 0-5.178.212-6.275 1.301l-2.068-1.237 8.343-3.501zm-5.98 8.58c0-.464 2.054-1.33 5.98-1.33 3.928 0 5.984.866 5.984 1.33s-2.055 1.33-5.984 1.33c-3.926 0-5.98-.865-5.98-1.33z"/><path d="M17.288 22.031a.948.948 0 100 1.896.948.948 0 000-1.896zm0 1.323h-.012a.375.375 0 010-.75h.013-.001a.375.375 0 010 .75h-.001zM16.195 2.336h2.186v.573h-2.186z"/></symbol><symbol id="book" viewBox="0 0 26 32"><path d="M3.719 6.407h7.654v.573H3.719zm1.146 2.137h6.508v.573H4.865zm-1.146 2.137h7.654v.573H3.719zm1.146 2.137h6.508v.573H4.865zm-1.146 2.137h7.654v.573H3.719zm1.146 2.137h6.508v.573H4.865zm9.361-10.685h7.654v.573h-7.654zm0 2.137h6.508v.573h-6.508zm0 2.137h7.654v.573h-7.654zm0 2.137h6.508v.573h-6.508zm0 2.137h7.654v.573h-7.654zm0 2.137h6.508v.573h-6.508z"/><path d="M24.645 5.754h-1.051V4.176a.287.287 0 00-.287-.287h-8.576c-.824 0-1.543.45-1.925 1.117l-.006.011a2.22 2.22 0 00-1.931-1.128H2.293a.287.287 0 00-.287.287v1.578H.955a.287.287 0 00-.287.287v15.383c0 .158.128.287.287.287h23.69a.287.287 0 00.287-.287V6.041a.287.287 0 00-.287-.287zm-9.904-1.291h8.28v15.349H14.13c-.394 0-.788.166-1.043.382V6.109c0-.909.737-1.645 1.645-1.645h.01-.001zm-12.162 0h8.291c.887 0 1.61.705 1.64 1.585v.003c.001.012.002.051.004.063v14.078a1.68 1.68 0 00-1.039-.381H2.58V4.462zM1.242 6.327h.764v13.771c0 .158.128.287.287.287h9.182c.47.002.866.316.992.745l.002.007H1.242V6.327zm23.116 14.81H13.132c.127-.438.525-.753.996-.753h9.18a.287.287 0 00.287-.287V6.326h.764v14.81z"/></symbol><symbol id="study-program" viewBox="0 0 26 32"><path d="M23.727 4.675v-.002a.156.156 0 00-.018-.034v.001l-.002-.002a.199.199 0 00-.025-.031L20.145 1.07a.217.217 0 00-.029-.024h-.001l-.007-.004a.148.148 0 00-.025-.014l-.001-.001c-.003-.001-.005-.003-.008-.003a.205.205 0 00-.072-.015H4.416a.21.21 0 00-.209.209v21.573c0 .014.002.028.004.042v-.001l.005.017.007.022a.114.114 0 00.01.019l.009.017c.007.011.015.02.024.029l.002.002 1.593 1.593c.038.038.09.061.148.061s.11-.023.148-.061l1.446-1.445 1.445 1.445a.209.209 0 00.296 0l1.445-1.445 1.446 1.445c.038.038.09.061.148.061s.11-.023.148-.061l1.445-1.445 1.445 1.445c.038.038.09.061.148.061s.11-.023.148-.061l1.446-1.445 1.445 1.445a.209.209 0 00.296.001l1.445-1.445 1.446 1.445c.038.038.09.061.148.061s.11-.023.148-.061l1.593-1.593.008-.01.017-.021c.005-.007.008-.015.012-.022a.091.091 0 00.007-.014c.004-.009.006-.019.009-.029.001-.003.003-.006.003-.01a.196.196 0 00.004-.043V4.756a.239.239 0 00-.017-.081l.001.001zm-3.521-2.952l2.823 2.823h-2.823V1.723zm3.119 20.98l-1.384 1.384-1.446-1.445c-.038-.038-.09-.061-.148-.061s-.11.023-.148.061l-1.445 1.445-1.445-1.445c-.038-.038-.09-.061-.148-.061s-.11.023-.148.061l-1.446 1.445-1.445-1.445c-.038-.038-.09-.061-.148-.061s-.11.023-.148.061l-1.445 1.445-1.446-1.445c-.038-.038-.09-.061-.148-.061s-.11.023-.148.061l-1.445 1.445-1.445-1.445c-.038-.038-.09-.061-.148-.061s-.11.023-.148.061l-1.446 1.445-1.384-1.384V1.426h15.164v3.328a.21.21 0 00.209.209h3.328v17.74z"/><path d="M6.183 3.404h6.847a.209.209 0 100-.418H6.183c-.115 0-.209.094-.209.209s.094.209.209.209zm0 1.293h10.98a.209.209 0 100-.418H6.183c-.115 0-.209.094-.209.209s.094.209.209.209zm-.209 1.161v6.77c0 .115.093.209.209.209h15.583a.21.21 0 00.209-.209v-6.77a.21.21 0 00-.209-.209H6.183a.21.21 0 00-.209.209zm4.621.209h10.961v1.799H10.595V6.067zm0 2.218h10.961v1.799H10.595V8.285zm0 2.217h10.961v1.917H10.595v-1.917zM6.392 6.067h3.785v1.799H6.392V6.067zm0 2.218h3.785v1.799H6.392V8.285zm0 2.217h3.785v1.917H6.392v-1.917zm15.374 3.276H6.183a.21.21 0 00-.209.209v6.77c0 .115.094.209.209.209s.209-.094.209-.209v-2.126h3.785v2.126c0 .115.094.209.209.209s.209-.094.209-.209v-2.126h10.961v2.126c0 .115.094.209.209.209s.209-.094.209-.209v-6.771a.208.208 0 00-.208-.208zm-11.589 4.435H6.392v-1.798h3.785v1.798zm0-2.217H6.392v-1.799h3.785v1.799zm11.379 2.217H10.595v-1.798h10.961v1.798zm0-2.217H10.595v-1.799h10.961v1.799zM3.215 1.008a.21.21 0 00-.209.209V22.79a.209.209 0 10.418 0V1.217a.21.21 0 00-.209-.209zm-1.15 0a.21.21 0 00-.209.209V22.79a.21.21 0 00.418.001V1.218a.21.21 0 00-.209-.209z"/></symbol><symbol id="call" viewBox="0 0 26 32"><path d="M3.725.503a1.6 1.6 0 00-1.113.521L.536 3.307c.003-.007-.008-.006-.067.077a.5.5 0 00-.071.138l-.001.004c-.846 2.69-.279 5.651 1.101 8.466s3.58 5.51 6.106 7.721c2.526 2.212 5.377 3.941 8.096 4.799s5.353.847 7.305-.571a.445.445 0 00.061-.051c.05-.051.052-.058.044-.049l.008-.01 2.066-2.273a1.615 1.615 0 00-.105-2.271l-4.903-4.458a1.615 1.615 0 00-2.271.105l-2.218 2.439c-1.8-.522-3.339-1.405-4.819-2.751s-2.506-2.796-3.195-4.538l2.216-2.438a1.615 1.615 0 00-.104-2.272L4.883.916A1.598 1.598 0 003.805.5l-.084.002h.004zm.049 1.001h.023c.158 0 .302.061.409.161l4.899 4.456a.59.59 0 01.041.849L6.695 9.663a.502.502 0 00-.099.515l-.001-.003c.744 2.029 1.944 3.694 3.595 5.196s3.42 2.539 5.51 3.087a.5.5 0 00.501-.147l2.451-2.694a.59.59 0 01.848-.039l4.902 4.457c.252.23.269.596.039.848l-2.048 2.253c-1.602 1.151-3.861 1.215-6.389.416-2.538-.8-5.294-2.461-7.733-4.595s-4.561-4.741-5.866-7.403C1.114 8.918.646 6.254 1.356 3.906l2.001-2.199a.597.597 0 01.414-.201h.002z"/></symbol><symbol id="vk" viewBox="0 0 32 32"><path fill="var(--color3, #436eab)" d="M27.541 18.46c1.061 1.036 2.182 2.011 3.134 3.152.421.507.819 1.03 1.123 1.619.432.836.041 1.757-.709 1.807l-4.662-.002c-1.202.1-2.162-.384-2.968-1.206-.645-.657-1.243-1.357-1.864-2.037-.254-.278-.521-.539-.839-.746-.636-.413-1.189-.287-1.552.377-.37.675-.454 1.423-.491 2.175-.05 1.098-.382 1.386-1.484 1.437-2.357.111-4.593-.245-6.671-1.434-1.832-1.048-3.252-2.528-4.489-4.203-2.407-3.261-4.25-6.845-5.907-10.53-.373-.83-.1-1.276.816-1.291 1.521-.03 3.041-.027 4.564-.002.618.009 1.027.364 1.266.947.823 2.023 1.83 3.948 3.093 5.732.337.475.68.95 1.168 1.284.541.37.952.248 1.207-.355.161-.382.232-.793.268-1.202.12-1.407.136-2.812-.075-4.214-.13-.875-.623-1.442-1.496-1.607-.446-.084-.379-.25-.164-.505.375-.439.727-.712 1.43-.712h5.269c.829.164 1.014.536 1.127 1.371l.005 5.852c-.009.323.161 1.282.743 1.496.466.152.773-.22 1.052-.516 1.261-1.339 2.162-2.921 2.966-4.559.357-.72.664-1.469.961-2.216.22-.555.566-.828 1.191-.816l5.071.005c.15 0 .302.002.448.027.854.146 1.089.513.825 1.348-.416 1.309-1.225 2.4-2.016 3.496-.846 1.17-1.75 2.3-2.589 3.477-.77 1.075-.709 1.617.248 2.55z"/></symbol></defs></svg>